<?xml version="1.0" encoding="UTF-8"?>
<svg id="_Слой_1" data-name="Слой 1" xmlns="http://www.w3.org/2000/svg" viewBox="0 0 283.46 283.46">
  <rect x="0" width="283.46" height="283.46"/>
  <g>
    <path d="M130.02,120.96c0-6.61,1.57-11.67,4.72-15.21,3.15-3.53,7.87-5.3,14.16-5.3s11.02,1.77,14.16,5.3c3.15,3.54,4.72,8.61,4.72,15.21v3.14h-12.12v-3.96c0-2.95-.56-5.03-1.69-6.24-1.12-1.2-2.7-1.81-4.72-1.81s-3.59.6-4.72,1.81c-1.13,1.2-1.69,3.28-1.69,6.24,0,2.79.62,5.26,1.87,7.4,1.24,2.14,2.79,4.16,4.66,6.06,1.86,1.91,3.86,3.81,6,5.71,2.14,1.91,4.14,3.98,6,6.24s3.42,4.82,4.66,7.69,1.86,6.25,1.86,10.14c0,6.61-1.61,11.67-4.84,15.21-3.22,3.54-7.98,5.31-14.27,5.31s-11.05-1.77-14.28-5.31c-3.22-3.53-4.84-8.6-4.84-15.21v-5.59h12.12v6.41c0,2.95.6,5.01,1.81,6.18s2.82,1.75,4.84,1.75,3.63-.58,4.84-1.75,1.81-3.22,1.81-6.18c0-2.8-.63-5.26-1.86-7.4-1.25-2.14-2.8-4.16-4.66-6.06-1.87-1.91-3.87-3.81-6-5.71-2.14-1.91-4.14-3.98-6-6.24-1.86-2.25-3.42-4.82-4.66-7.69s-1.86-6.25-1.86-10.14Z" fill="#fff"/>
    <path d="M190.01,100.41v63.61c0,2.99.6,5.07,1.8,6.24,1.2,1.18,2.82,1.77,4.84,1.77s3.63-.59,4.84-1.77c1.2-1.17,1.81-3.25,1.81-6.24v-63.61h12.12v62.79c0,6.68-1.61,11.8-4.84,15.37-3.22,3.58-7.98,5.36-14.27,5.36s-11.05-1.78-14.28-5.36c-3.22-3.57-4.84-8.69-4.84-15.37v-62.79h12.82Z" fill="#fff"/>
    <polygon points="133.78 90.52 133.78 100.5 120.38 100.5 120.38 214.37 107.57 214.37 107.57 100.5 94.16 100.5 94.16 90.52 133.78 90.52" fill="#fff"/>
    <polygon points="145.58 69.09 140.13 78.53 133.98 89.18 93.97 89.18 87.81 78.53 82.37 69.09 145.58 69.09" fill="#fff"/>
    <g>
      <path d="M139.45,205.93v2.91c0,1.77-.41,3.13-1.24,4.08-.83.95-2.04,1.42-3.65,1.42s-2.83-.48-3.65-1.42c-.83-.95-1.24-2.31-1.24-4.08v-11.37c0-1.77.41-3.13,1.24-4.08.83-.95,2.04-1.42,3.65-1.42s2.83.48,3.65,1.42c.83.95,1.24,2.31,1.24,4.08v2.13h-3.1v-2.34c0-.79-.15-1.35-.46-1.67s-.72-.49-1.24-.49-.93.16-1.24.49c-.31.32-.46.88-.46,1.67v11.81c0,.79.15,1.34.46,1.66.31.31.72.47,1.24.47s.93-.16,1.24-.47.46-.86.46-1.66v-3.12h3.1Z" fill="#fff"/>
      <path d="M141.54,192.22h3.28v18.74h5.4v3.12h-8.68v-21.87Z" fill="#fff"/>
      <path d="M154.98,201.43h4.5v3.12h-4.5v6.4h5.67v3.12h-8.95v-21.87h8.95v3.12h-5.67v6.09Z" fill="#fff"/>
      <path d="M173.29,214.08h-3.31l-.57-3.97h-4.03l-.57,3.97h-3.01l3.34-21.87h4.8l3.34,21.87ZM165.81,207.15h3.16l-1.58-11.06-1.58,11.06Z" fill="#fff"/>
      <path d="M177.73,198.25v15.84h-2.95v-21.87h4.12l3.37,13.09v-13.09h2.92v21.87h-3.37l-4.09-15.84Z" fill="#fff"/>
      <path d="M187.54,192.22h3.28v21.87h-3.28v-21.87Z" fill="#fff"/>
      <path d="M196.13,198.25v15.84h-2.95v-21.87h4.12l3.37,13.09v-13.09h2.92v21.87h-3.37l-4.09-15.84Z" fill="#fff"/>
      <path d="M210.86,201.9h4.59v6.94c0,1.77-.41,3.13-1.24,4.08-.83.95-2.04,1.42-3.65,1.42s-2.83-.48-3.65-1.42c-.83-.95-1.24-2.31-1.24-4.08v-11.37c0-1.77.41-3.13,1.24-4.08.82-.95,2.04-1.42,3.65-1.42s2.83.48,3.65,1.42c.83.95,1.24,2.31,1.24,4.08v2.13h-3.1v-2.34c0-.79-.15-1.35-.46-1.67s-.72-.49-1.24-.49-.93.16-1.24.49-.46.88-.46,1.67v11.81c0,.79.15,1.34.46,1.66s.72.47,1.24.47.93-.16,1.24-.47.46-.86.46-1.66v-4.03h-1.49v-3.12Z" fill="#fff"/>
    </g>
  </g>
</svg>